<svg xmlns="http://www.w3.org/2000/svg" width="28" height="28" viewBox="0 0 512 512">
  <g transform="translate(0.000000,512.000000) scale(0.0625000,-0.0625000)" fill="#000000" stroke="none">
    <path d="M2398 4849 c-604 -58 -1151 -430 -1428 -970 -145 -282 -209 -572 -197 -892 9 -245 63 -467 166 -682 80 -168 26 -89 1036 -1495 163 -228 313 -434 332 -457 21 -27 58 -54 101 -75 57 -28 77 -33 142 -33 61 0 85 5 130 27 30 15 67 37 82 50 26 23 1165 1570 1285 1746 122 180 220 415 270 651 25 114 27 147 27 346 1 251 -14 354 -83 564 -260 789 -1039 1299 -1863 1220z m415 -1049 c240 -80 424 -265 509 -510 31 -92 33 -101 33 -250 0 -149 -2 -158 -33 -250 -85 -244 -268 -428 -509 -511 -95 -32 -103 -33 -253 -34 -148 0 -159 2 -246 32 -249 87 -434 270 -514 510 -42 125 -52 283 -26 409 63 312 304 558 616 629 45 10 106 14 195 11 115 -3 141 -7 228 -36z"/>
  </g>
</svg>
